<svg aria-hidden="true" style="position: absolute; width: 0; height: 0; overflow: hidden;" version="1.1" xmlns="http://www.w3.org/2000/svg" xmlns:xlink="http://www.w3.org/1999/xlink">
  <defs>
    <symbol id="icon-side-bar" viewBox="0 0 32 32">
      <path stroke-linejoin="round" stroke-linecap="round" stroke-miterlimit="4" stroke-width="2.8571" d="M4 20h24M4 12h24"></path>
    </symbol>
    <symbol id="icon-close-sharp" viewBox="0 0 32 32">
      <path fill="#055545" style="fill: var(--color1, #055545)" d="M25.143 8.983l-2.126-2.126-7.017 7.017-7.017-7.017-2.126 2.126 7.017 7.017-7.017 7.017 2.126 2.126 7.017-7.017 7.017 7.017 2.126-2.126-7.017-7.017 7.017-7.017z"></path>
    </symbol>
    <symbol id="icon-yb" viewBox="0 0 32 32">
      <path d="M18.227 15.768l-3.12-1.456c-0.272-0.125-0.496 0.016-0.496 0.317v2.741c0 0.301 0.224 0.443 0.496 0.317l3.119-1.456c0.273-0.128 0.273-0.336 0-0.464zM16 2.667c-7.364 0-13.333 5.969-13.333 13.333s5.969 13.333 13.333 13.333 13.333-5.969 13.333-13.333-5.969-13.333-13.333-13.333zM16 21.417c-6.825 0-6.944-0.616-6.944-5.417s0.12-5.417 6.944-5.417c6.825 0 6.944 0.616 6.944 5.417s-0.12 5.417-6.944 5.417z"></path>
    </symbol>
    <symbol id="icon-ig" viewBox="0 0 32 32">
      <path d="M21.18 4h-11.693c-3.765 0.004-6.816 3.055-6.82 6.82v11.694c0.004 3.765 3.055 6.816 6.82 6.82h11.694c3.765-0.005 6.815-3.055 6.82-6.82v-11.694c-0.005-3.765-3.055-6.815-6.82-6.82h-0zM15.333 22.513c-3.229 0-5.847-2.618-5.847-5.847s2.618-5.847 5.847-5.847v0c3.229 0 5.847 2.618 5.847 5.847s-2.618 5.847-5.847 5.847v0zM22.64 10.82c-0.807 0-1.461-0.654-1.461-1.461s0.654-1.461 1.461-1.461v0c0.807 0 1.461 0.654 1.461 1.461s-0.654 1.461-1.461 1.461v0zM19.232 16.667c0 2.152-1.745 3.897-3.897 3.897s-3.897-1.745-3.897-3.897v0c0-2.152 1.745-3.897 3.897-3.897s3.897 1.745 3.897 3.897v0z"></path>
    </symbol>
    <symbol id="icon-fb" viewBox="0 0 32 32">
      <path d="M29.333 16.033c0-7.379-5.973-13.367-13.333-13.367s-13.333 5.988-13.333 13.367c0 6.469 4.587 11.856 10.667 13.1v-9.089h-2.667v-4.011h2.667v-3.34c0-0 0-0.001 0-0.001 0-2.579 2.088-4.671 4.666-4.677h3.334v4.011h-2.667c-0.733 0-1.333 0.6-1.333 1.336v2.673h4v4.011h-4v9.288c6.733-0.668 12-6.363 12-13.3z"></path>
    </symbol>
    <symbol id="icon-favicon" viewBox="0 0 32 32">
      <path fill="#1b414b" style="fill: var(--color2, #1b414b)" d="M8 0h16c4.418 0 8 3.582 8 8v16c0 4.418-3.582 8-8 8h-16c-4.418 0-8-3.582-8-8v-16c0-4.418 3.582-8 8-8z"></path>
      <path fill="#fbfbfb" style="fill: var(--color3, #fbfbfb)" d="M7.37 10.818h1.744l2.66 4.629h0.11l2.66-4.629h1.744l-3.694 6.185v3.997h-1.53v-3.997l-3.695-6.185zM17.14 21h-1.63l3.663-10.182h1.775l3.664 10.182h-1.63l-2.88-8.332h-0.079l-2.883 8.332zM17.413 17.013h5.29v1.292h-5.29v-1.292z"></path>
      <symbol id="icon-instagram" viewBox="0 0 32 32">
        <path
        d="M21.179 4H9.487a6.829 6.829 0 0 0-6.821 6.821v11.692a6.829 6.829 0 0 0 6.821 6.821h11.692A6.829 6.829 0 0 0 28 22.513V10.821A6.829 6.829 0 0 0 21.179 4zm-5.846 18.513a5.849 5.849 0 0 1-5.401-3.609c-.442-1.068-.558-2.244-.333-3.378s.782-2.176 1.6-2.993a5.847 5.847 0 0 1 9.98 4.134 5.854 5.854 0 0 1-5.846 5.846zm7.308-11.693a1.465 1.465 0 0 1-1.35-.902c-.111-.267-.14-.561-.083-.844a1.468 1.468 0 0 1 1.148-1.148 1.469 1.469 0 0 1 1.5.621 1.457 1.457 0 0 1-.182 1.845 1.462 1.462 0 0 1-1.033.428zm-3.41 5.847a3.898 3.898 0 1 1-7.797-.002 3.898 3.898 0 0 1 7.797.002z" />
      </symbol>
      <symbol id="icon-youtube" viewBox="0 0 32 32">
        <path
        d="m18.226 15.768-3.119-1.455c-.272-.126-.496.015-.496.317v2.742c0 .301.224.443.496.317l3.118-1.455c.274-.128.274-.336.001-.464zM16 2.667C8.636 2.667 2.667 8.636 2.667 16S8.636 29.333 16 29.333 29.333 23.364 29.333 16 23.364 2.667 16 2.667zm0 18.75c-6.825 0-6.944-.615-6.944-5.417s.119-5.417 6.944-5.417 6.944.615 6.944 5.417-.119 5.417-6.944 5.417z" />
      </symbol>
      <symbol id="icon-facebook" viewBox="0 0 32 32">
        <path
        d="M29.333 16.033C29.333 8.655 23.36 2.666 16 2.666S2.667 8.654 2.667 16.033c0 6.469 4.587 11.856 10.667 13.099v-9.089h-2.667v-4.01h2.667v-3.342a4.677 4.677 0 0 1 4.667-4.678h3.333v4.01h-2.667c-.733 0-1.333.601-1.333 1.337v2.673h4v4.01h-4v9.29c6.733-.668 12-6.363 12-13.3z" />
      </symbol>
    </symbol>
  </defs>
</svg>